<svg xmlns="http://www.w3.org/2000/svg" width="227.642" height="64.059" viewBox="0 0 227.642 64.059">
  <g id="Group_7633" data-name="Group 7633" transform="translate(-8.005 -4.098)">
    <path id="Path_5278" data-name="Path 5278" d="M148.473,45.505h-2.88v-3.45h-3.837v3.45H138.88v3.487h2.877v8.231h3.837V48.992h2.88Z" transform="translate(-22.007 -6.383)" fill="#f7a11b"/>
    <g id="Group_7634" data-name="Group 7634" transform="translate(109.945 27.093)">
      <path id="Path_5279" data-name="Path 5279" d="M148.473,45.505h-2.88v-3.45h-3.837v3.45H138.88v3.487h2.877v8.231h3.837V48.992h2.88Z" transform="translate(-131.952 -33.476)" fill="none" stroke="#003a7f" stroke-width="0.498"/>
      <g id="Group_7633-2" data-name="Group 7633">
        <path id="Path_5280" data-name="Path 5280" d="M139.724,57.35h-5.33V45.72" transform="translate(-131.198 -34.092)" fill="none" stroke="#003a7f" stroke-width="0.95"/>
        <path id="Path_5281" data-name="Path 5281" d="M148.492,57.35h5.329V45.72" transform="translate(-133.568 -34.092)" fill="none" stroke="#003a7f" stroke-width="0.95"/>
        <path id="Path_5282" data-name="Path 5282" d="M130.552,44.341l11.725-12.6L154,44.341" transform="translate(-130.552 -31.741)" fill="none" stroke="#003a7f" stroke-width="0.95"/>
      </g>
    </g>
    <g id="Group_7638" data-name="Group 7638" transform="translate(8.005 4.098)">
      <rect id="Rectangle_2438" data-name="Rectangle 2438" width="122.977" height="12.615" transform="translate(52.415 51.444)" fill="#f7a11b"/>
      <path id="Path_5283" data-name="Path 5283" d="M16.416,44.255c0-3.718,0-4.385-.051-5.147-.049-.812-.25-1.192-1.08-1.358a4.827,4.827,0,0,0-.855-.072c-.1,0-.2-.047-.2-.143,0-.142.126-.191.4-.191,1.131,0,2.714.072,2.841.072.275,0,2.185-.072,2.966-.072a8.044,8.044,0,0,1,4.6,1.051,4.11,4.11,0,0,1,1.734,3.239c0,1.766-.779,3.529-3.04,5.507,2.06,2.5,3.77,4.624,5.227,6.1a5.287,5.287,0,0,0,3.067,1.715,6.34,6.34,0,0,0,.98.072c.126,0,.225.071.225.143,0,.143-.15.189-.6.189H30.841a5.343,5.343,0,0,1-2.689-.452c-1.081-.547-1.961-1.716-3.393-3.5C23.7,50.093,22.523,48.5,22.02,47.88a.408.408,0,0,0-.326-.144L18.6,47.689c-.126,0-.175.07-.175.191v.571c0,2.288,0,4.171.126,5.172.074.692.225,1.216.978,1.311.353.048.907.1,1.131.1.151,0,.2.071.2.143,0,.117-.126.189-.4.189-1.382,0-2.966-.072-3.092-.072-.025,0-1.608.072-2.362.072-.275,0-.4-.046-.4-.189,0-.072.051-.143.2-.143a4.012,4.012,0,0,0,.753-.1c.5-.095.629-.619.73-1.311.126-1,.126-2.883.126-5.172Zm2.011,2.074a.314.314,0,0,0,.175.289,7.306,7.306,0,0,0,2.639.38,3.385,3.385,0,0,0,1.884-.455,4.245,4.245,0,0,0,1.532-3.669c0-2.979-1.657-4.767-4.346-4.767a7.944,7.944,0,0,0-1.684.142.289.289,0,0,0-.2.286Z" transform="translate(-9.051 -9.688)" fill="#003a7f"/>
      <path id="Path_5284" data-name="Path 5284" d="M39.2,46.515c0-3.138,0-3.7-.041-4.345-.04-.682-.2-1-.865-1.147a3.93,3.93,0,0,0-.684-.061c-.079,0-.161-.039-.161-.118,0-.121.1-.161.322-.161.9,0,2.172.06,2.273.06.14,0,4.141,0,4.6-.019a5.34,5.34,0,0,0,.865-.1c.1-.018.181-.1.282-.1.059,0,.08.081.08.181,0,.142-.1.383-.161.947-.02.2-.061,1.084-.1,1.324-.022.1-.061.221-.141.221-.121,0-.161-.1-.161-.261a2.145,2.145,0,0,0-.121-.725c-.141-.321-.341-.56-1.427-.682-.341-.039-2.533-.062-2.753-.062-.08,0-.121.062-.121.2v5.548c0,.141.019.2.121.2.261,0,2.734,0,3.2-.04.482-.044.765-.081.945-.283.141-.161.222-.263.3-.263.06,0,.1.042.1.161s-.1.465-.161,1.128c-.04.4-.08,1.146-.08,1.285,0,.161,0,.383-.14.383-.1,0-.143-.079-.143-.181a2.08,2.08,0,0,0-.079-.663c-.082-.284-.262-.625-1.046-.7-.543-.06-2.534-.1-2.876-.1a.128.128,0,0,0-.14.142v1.769c0,.682-.022,3.014,0,3.436.06,1.386.36,1.65,2.332,1.65a5.719,5.719,0,0,0,1.93-.223c.523-.221.764-.621.9-1.447.04-.221.081-.3.182-.3.121,0,.121.161.121.3a19.3,19.3,0,0,1-.264,1.95c-.139.522-.3.522-1.084.522-3.037,0-4.384-.121-4.966-.121-.041,0-.383.021-.806.021-.4.02-.863.039-1.164.039-.224,0-.322-.039-.322-.16,0-.06.038-.121.161-.121a2.99,2.99,0,0,0,.6-.079c.4-.081.5-.525.583-1.107.1-.843.1-2.432.1-4.361Z" transform="translate(-12.956 -10.223)" fill="#003a7f"/>
      <path id="Path_5285" data-name="Path 5285" d="M53.684,55.6c-.281-.141-.3-.22-.3-.764,0-1,.08-1.808.1-2.13.021-.223.06-.323.16-.323.121,0,.142.059.142.222a3.542,3.542,0,0,0,.06.742A2.736,2.736,0,0,0,56.821,55.4,2.686,2.686,0,0,0,59.7,52.72c0-1.388-.584-2.189-2.313-3.617l-.9-.744c-2.132-1.75-2.615-3-2.615-4.362,0-2.152,1.61-3.62,4.163-3.62a7.873,7.873,0,0,1,1.869.2,3.268,3.268,0,0,0,.7.1c.161,0,.2.041.2.142s-.08.763-.08,2.13c0,.321-.04.463-.141.463-.121,0-.14-.1-.161-.261a3.537,3.537,0,0,0-.26-1.006c-.121-.222-.664-1.066-2.514-1.066a2.284,2.284,0,0,0-2.472,2.333c0,1.147.562,1.829,2.451,3.376l.564.443c2.371,1.87,2.934,3.119,2.934,4.724a4.166,4.166,0,0,1-1.708,3.337,5.289,5.289,0,0,1-3.036.843A6.105,6.105,0,0,1,53.684,55.6Z" transform="translate(-15.635 -10.198)" fill="#003a7f"/>
      <path id="Path_5286" data-name="Path 5286" d="M68.746,53.969a7.7,7.7,0,0,1-2.433-5.951,8.03,8.03,0,0,1,2.253-5.49c1.205-1.205,3.035-2.15,6.132-2.15a16.92,16.92,0,0,1,2.914.242,17.66,17.66,0,0,0,2.051.3c.222.02.262.1.262.223,0,.161-.059.4-.1,1.125-.041.663-.041,1.769-.061,2.073s-.059.419-.181.419c-.141,0-.161-.141-.161-.419a2.8,2.8,0,0,0-.844-2.054,6.71,6.71,0,0,0-4.021-1.144c-2.674,0-3.922.783-4.624,1.467-1.467,1.408-1.81,3.2-1.81,5.248a7.261,7.261,0,0,0,7.258,7.359c1.508,0,2.7-.181,3.5-1a3.791,3.791,0,0,0,.743-1.689c.041-.222.082-.3.2-.3.1,0,.141.141.141.3a21,21,0,0,1-.443,2.574c-.121.38-.161.421-.522.581a11.617,11.617,0,0,1-3.619.463C72.364,56.138,70.334,55.4,68.746,53.969Z" transform="translate(-17.809 -10.198)" fill="#003a7f"/>
      <path id="Path_5287" data-name="Path 5287" d="M88.758,46.548c0-3.138,0-3.7-.041-4.345-.042-.682-.2-1-.864-1.147A3.945,3.945,0,0,0,87.169,41c-.081,0-.16-.039-.16-.118,0-.121.1-.161.32-.161.905,0,2.132.06,2.313.06s1.388-.06,1.991-.06c.22,0,.32.041.32.161,0,.079-.079.118-.161.118a3.223,3.223,0,0,0-.5.061c-.544.081-.7.443-.745,1.147-.04.642-.04,1.207-.04,4.345V49.36c0,2.9.644,4.143,1.508,4.969a3.942,3.942,0,0,0,3.036,1.1,4.223,4.223,0,0,0,3.156-1.45c.925-1.144,1.166-2.854,1.166-4.924V46.548c0-3.138,0-3.7-.04-4.345-.041-.682-.2-1-.865-1.147A3.93,3.93,0,0,0,97.784,41c-.08,0-.16-.039-.16-.118,0-.121.1-.161.321-.161.905,0,2.01.06,2.132.06.14,0,1.085-.06,1.688-.06.221,0,.322.041.322.161,0,.079-.081.118-.161.118a1.727,1.727,0,0,0-.5.061c-.544.1-.7.443-.744,1.147-.041.642-.041,1.207-.041,4.345V48.7c0,2.174-.241,4.587-1.851,6.013A5.878,5.878,0,0,1,94.65,56.2a6.174,6.174,0,0,1-4.143-1.426c-.985-.944-1.749-2.352-1.749-5.288Z" transform="translate(-21.289 -10.255)" fill="#003a7f"/>
      <path id="Path_5288" data-name="Path 5288" d="M111.213,46.515c0-3.138,0-3.7-.04-4.345-.04-.682-.2-1-.865-1.147a3.933,3.933,0,0,0-.682-.061c-.082,0-.161-.039-.161-.118,0-.121.1-.161.322-.161.905,0,2.171.06,2.27.06.142,0,4.144,0,4.605-.019a5.327,5.327,0,0,0,.866-.1c.1-.018.181-.1.279-.1.062,0,.081.081.081.181,0,.142-.1.383-.161.947-.019.2-.06,1.084-.1,1.324-.02.1-.061.221-.14.221-.121,0-.161-.1-.161-.261a2.2,2.2,0,0,0-.12-.725c-.142-.321-.342-.56-1.429-.682-.342-.039-2.531-.062-2.753-.062-.081,0-.121.062-.121.2v5.548c0,.141.02.2.121.2.26,0,2.734,0,3.2-.04.483-.044.765-.081.946-.283.14-.161.221-.263.3-.263.062,0,.1.042.1.161s-.1.465-.161,1.128c-.039.4-.08,1.146-.08,1.285,0,.161,0,.383-.141.383-.1,0-.141-.079-.141-.181a2.02,2.02,0,0,0-.082-.663c-.079-.284-.26-.625-1.045-.7-.542-.06-2.534-.1-2.876-.1a.128.128,0,0,0-.14.142v1.769c0,.682-.021,3.014,0,3.436.061,1.386.362,1.65,2.332,1.65a5.729,5.729,0,0,0,1.931-.223c.522-.221.764-.621.9-1.447.041-.221.079-.3.181-.3.121,0,.121.161.121.3,0,.161-.161,1.526-.262,1.95-.141.522-.3.522-1.085.522-3.037,0-4.385-.121-4.969-.121-.038,0-.38.021-.8.021-.4.02-.864.039-1.166.039-.221,0-.323-.039-.323-.16,0-.06.041-.121.161-.121a3.006,3.006,0,0,0,.6-.079c.4-.081.5-.525.582-1.107.1-.843.1-2.432.1-4.361Z" transform="translate(-25.065 -10.223)" fill="#003a7f"/>
      <path id="Path_5289" data-name="Path 5289" d="M184.5,53.355c.1.814.278,2.079,1.358,2.394a6,6,0,0,0,1.635.2c.126,0,.2.022.2.113,0,.134-.225.2-.529.2-.552,0-3.267-.067-4.2-.136-.58-.043-.7-.111-.7-.225,0-.091.05-.135.176-.158s.15-.408.1-.814l-1.206-11.655h-.076L175.1,55.026c-.53.994-.6,1.2-.829,1.2-.177,0-.3-.226-.779-1.04-.655-1.106-2.817-5.016-2.943-5.241-.224-.406-3.038-5.826-3.315-6.438h-.1l-1.006,10.48c-.025.362-.025.771-.025,1.152a.75.75,0,0,0,.654.7,5.149,5.149,0,0,0,.954.113c.1,0,.2.045.2.113,0,.158-.15.2-.452.2-.93,0-2.135-.067-2.337-.067-.226,0-1.433.067-2.112.067-.252,0-.426-.043-.426-.2,0-.068.127-.113.252-.113a3.522,3.522,0,0,0,.754-.069c.829-.136.9-1.014,1-1.874L166.4,39.283c.052-.247.126-.407.278-.407s.251.089.378.339l7.69,14.206,7.388-14.184c.1-.2.2-.362.378-.362s.25.182.3.611Z" transform="translate(-33.998 -9.946)" fill="#003a7f"/>
      <path id="Path_5290" data-name="Path 5290" d="M197.489,50.866c0,1.927,0,3.516.1,4.361.062.582.183,1.026.785,1.106a8.144,8.144,0,0,0,.9.079c.121,0,.161.062.161.121,0,.1-.1.16-.321.16-1.106,0-2.373-.06-2.475-.06s-1.368.06-1.97.06c-.22,0-.321-.039-.321-.16,0-.06.039-.121.16-.121a2.97,2.97,0,0,0,.6-.079c.4-.081.5-.524.581-1.106.1-.844.1-2.433.1-4.361V47.328c0-3.138,0-3.7-.04-4.345-.042-.682-.242-1.025-.683-1.126a2.741,2.741,0,0,0-.624-.082c-.082,0-.161-.038-.161-.117,0-.121.1-.161.32-.161.664,0,1.931.06,2.031.06s1.368-.06,1.971-.06c.221,0,.323.04.323.161,0,.079-.082.117-.161.117a3.209,3.209,0,0,0-.5.062c-.545.1-.706.442-.744,1.147-.041.642-.041,1.207-.041,4.345Z" transform="translate(-39.329 -10.387)" fill="#003a7f"/>
      <path id="Path_5291" data-name="Path 5291" d="M204.137,56.375c-.282-.14-.3-.219-.3-.764,0-1,.081-1.807.1-2.13.018-.222.06-.323.161-.323.119,0,.14.06.14.223a3.546,3.546,0,0,0,.06.742,2.737,2.737,0,0,0,2.976,2.052A2.687,2.687,0,0,0,210.15,53.5c0-1.388-.584-2.189-2.313-3.618l-.905-.744c-2.131-1.75-2.614-3-2.614-4.362,0-2.152,1.609-3.62,4.162-3.62a7.832,7.832,0,0,1,1.87.2,3.244,3.244,0,0,0,.7.1c.161,0,.2.041.2.142s-.081.763-.081,2.13c0,.321-.038.463-.14.463-.121,0-.141-.1-.161-.261a3.562,3.562,0,0,0-.261-1c-.121-.223-.663-1.066-2.511-1.066a2.285,2.285,0,0,0-2.475,2.333c0,1.147.563,1.83,2.452,3.376l.562.444c2.373,1.869,2.936,3.119,2.936,4.723a4.169,4.169,0,0,1-1.709,3.338,5.294,5.294,0,0,1-3.036.843A6.1,6.1,0,0,1,204.137,56.375Z" transform="translate(-40.934 -10.329)" fill="#003a7f"/>
      <path id="Path_5292" data-name="Path 5292" d="M216.919,56.375c-.279-.14-.3-.219-.3-.764,0-1,.081-1.807.1-2.13.019-.222.057-.323.161-.323s.14.06.14.223a3.546,3.546,0,0,0,.06.742,2.737,2.737,0,0,0,2.976,2.052,2.684,2.684,0,0,0,2.874-2.676c0-1.388-.583-2.189-2.313-3.618l-.9-.744c-2.132-1.75-2.615-3-2.615-4.362,0-2.152,1.609-3.62,4.162-3.62a7.824,7.824,0,0,1,1.869.2,3.292,3.292,0,0,0,.706.1c.161,0,.2.041.2.142s-.081.763-.081,2.13c0,.321-.038.463-.141.463-.12,0-.138-.1-.161-.261a3.4,3.4,0,0,0-.26-1c-.121-.223-.664-1.066-2.514-1.066a2.285,2.285,0,0,0-2.471,2.333c0,1.147.563,1.83,2.452,3.376l.562.444c2.372,1.869,2.936,3.119,2.936,4.723a4.166,4.166,0,0,1-1.709,3.338,5.29,5.29,0,0,1-3.035.843A6.111,6.111,0,0,1,216.919,56.375Z" transform="translate(-43.083 -10.329)" fill="#003a7f"/>
      <path id="Path_5293" data-name="Path 5293" d="M232.693,50.866c0,1.927,0,3.516.1,4.361.058.582.18,1.026.783,1.106a8.121,8.121,0,0,0,.906.079c.12,0,.161.062.161.121,0,.1-.1.16-.323.16-1.1,0-2.373-.06-2.474-.06s-1.367.06-1.969.06c-.222,0-.323-.039-.323-.16,0-.06.04-.121.161-.121a2.924,2.924,0,0,0,.6-.079c.4-.081.5-.524.585-1.106.1-.844.1-2.433.1-4.361V47.328c0-3.138,0-3.7-.037-4.345-.041-.682-.24-1.025-.684-1.126a2.719,2.719,0,0,0-.624-.082c-.08,0-.161-.038-.161-.117,0-.121.1-.161.322-.161.663,0,1.931.06,2.03.06s1.369-.06,1.971-.06c.22,0,.32.04.32.161,0,.079-.078.117-.159.117a3.26,3.26,0,0,0-.5.062c-.542.1-.7.442-.743,1.147-.042.642-.042,1.207-.042,4.345Z" transform="translate(-45.249 -10.387)" fill="#003a7f"/>
      <path id="Path_5294" data-name="Path 5294" d="M244.521,41.156c4.524,0,7.9,2.856,7.9,7.539a7.892,7.892,0,0,1-8.023,8.223c-5.506,0-7.8-4.282-7.8-7.9A7.783,7.783,0,0,1,244.521,41.156Zm.421,15c1.809,0,5.549-1.047,5.549-6.9,0-4.824-2.936-7.418-6.112-7.418-3.358,0-5.871,2.21-5.871,6.614C238.508,53.14,241.323,56.157,244.942,56.157Z" transform="translate(-46.443 -10.329)" fill="#003a7f"/>
      <path id="Path_5295" data-name="Path 5295" d="M259.452,53.9c.039,1.65.24,2.172.783,2.333a4.341,4.341,0,0,0,1,.119c.1,0,.161.042.161.121,0,.121-.121.16-.361.16-1.148,0-1.952-.06-2.132-.06s-1.026.06-1.931.06c-.2,0-.32-.02-.32-.16,0-.079.059-.121.159-.121a2.843,2.843,0,0,0,.825-.119c.5-.142.6-.725.6-2.552l.019-11.522c0-.786.062-1.006.222-1.006s.5.444.7.644c.3.341,3.3,3.579,6.393,6.9,1.991,2.133,4.183,4.583,4.825,5.246l-.22-10.212c-.019-1.305-.161-1.749-.786-1.91a5.5,5.5,0,0,0-.984-.1c-.141,0-.161-.057-.161-.138,0-.121.161-.141.4-.141.9,0,1.869.06,2.092.06s.883-.06,1.707-.06c.222,0,.361.019.361.141,0,.081-.081.138-.22.138a1.741,1.741,0,0,0-.484.062c-.663.142-.742.584-.742,1.789l-.042,11.783c0,1.326-.04,1.426-.182,1.426-.161,0-.4-.22-1.465-1.285-.223-.2-3.117-3.158-5.249-5.449-2.332-2.513-4.6-5.046-5.246-5.771Z" transform="translate(-49.816 -10.329)" fill="#003a7f"/>
      <rect id="Rectangle_2439" data-name="Rectangle 2439" width="62.156" height="0.661" transform="translate(0 23.229)" fill="#f7a11b"/>
      <rect id="Rectangle_2440" data-name="Rectangle 2440" width="68.614" height="0.661" transform="translate(158.987 23.229)" fill="#f7a11b"/>
      <rect id="Rectangle_2441" data-name="Rectangle 2441" width="48.504" height="0.661" transform="translate(0 51.94)" fill="#f7a11b"/>
      <rect id="Rectangle_2442" data-name="Rectangle 2442" width="48.504" height="0.661" transform="translate(179.138 51.94)" fill="#f7a11b"/>
      <path id="Path_5296" data-name="Path 5296" d="M31.1,47.18" transform="translate(-11.889 -11.342)" fill="#003a7f" stroke="#1a1818" stroke-width="1.222"/>
      <g id="Group_7636" data-name="Group 7636" transform="translate(64.992)">
        <path id="Path_5297" data-name="Path 5297" d="M142.414,6.188c-.368,0-.736-.28-.736-.537,0-.339.566-.819,1.3-1.1a15.337,15.337,0,0,1,3.366-.451,1.579,1.579,0,0,1,.341.025l.591.115.229-.032h.03a10.62,10.62,0,0,1,1.018.314l.932.255.481.255a6.4,6.4,0,0,1,1.611.962c.229.171.481.4.768.65.394.339.508.455.563.566l.257.369.252.31.255.423.2.257.138.31.2.286a10.926,10.926,0,0,1,.874,3.648l.03.508.056.34-.056.4v.792l-.06.452-.083.735-.111.424L154.78,17l-.086.255-.083.4-.342,1.017a2.935,2.935,0,0,1-.255.707l-.254.453a8.791,8.791,0,0,1-.592,1.074,1.968,1.968,0,0,0-.171.255c-.141.312.03.03-.907,1.274l-.113.031a5.307,5.307,0,0,1-1.1.961,3.15,3.15,0,0,0-.4.34,2.262,2.262,0,0,1-.426.226l-1.183.537a2.6,2.6,0,0,1-1.02.169l-.457.03a.2.2,0,0,0-.083-.03l-.709-.141c-.2-.027-.31-.056-.339-.056l-.48-.2-.2-.057a3.922,3.922,0,0,1-1.1-.962h-.058a1.633,1.633,0,0,0-.171-.282l-.082-.056-.2-.312-.058-.029-.224-.479-.255-.512-.057-.226c0-.027-.03-.056-.057-.083v-.113a1.625,1.625,0,0,0-.086-.4,1.5,1.5,0,0,1-.14-.481l-.03-.343a.377.377,0,0,0-.368-.368c-.056,0-.144.058-.254.171-.229.366-.482.594-.819,1.075l-.4.537-.311.508-.368.4-.566,1.019a.826.826,0,0,0-.2.4l-.03.284c-.027.083-.108.141-.31.141a1.4,1.4,0,0,1-.4-.085c-.054-.144-.083-.255-.112-.34a1.524,1.524,0,0,1-.087-.368,2.085,2.085,0,0,1,.255-.793,2.648,2.648,0,0,0,.284-.706,4.178,4.178,0,0,1,.4-1.1c.257-.595.512-1.444.933-2.377l.087-.4.282-.536.142-.482.311-.82a1.688,1.688,0,0,1,.114-.313l.142-.168.225-.651.168-.312.144-.453.394-.791.314-.878.4-.763.169-.508.142-.257.087-.339.252-.393.2-.566.257-.4.055-.252a7.936,7.936,0,0,0,.651-1.329l.567-1.246a4.8,4.8,0,0,1,.252-.511c.228-.367.256-.423.256-.453,0-.14-.085-.167-.339-.2l-.48-.055-.427.027h-.793l-.818.171a.786.786,0,0,0-.311.085l-.112.083-.285.171a.388.388,0,0,0-.171.311A.858.858,0,0,1,142.414,6.188Zm-1.585,15.084a2.211,2.211,0,0,1,.2-.369l.509-.679a4.706,4.706,0,0,1,.6-.962l.906-1.216c.4-.482.224-.171.309-.369.087-.252.17-.28.764-.423a1.093,1.093,0,0,0,.369.423l-.029.115H144.4a1.786,1.786,0,0,0-.173.313l-.026.224-.113.481c0,.086-.027.4-.027.851v.423a.614.614,0,0,1,.083.341.973.973,0,0,0,.141.593V21.3l.142.253.115.339.284.483a6.4,6.4,0,0,0,.848.962l.169.028.623.339.368.058.368.054h.141a7.317,7.317,0,0,0,.991-.083.684.684,0,0,0,.339-.059l.339-.141a2.652,2.652,0,0,0,1.046-.45,7.983,7.983,0,0,0,2.524-2.916l.166-.254.339-.878a1.438,1.438,0,0,0,.171-.369l.028-.116.113-.308.027-.255.312-1.19.086-.536.058-.2.053-1.02.085-.564v-.228s.031-.057.056-.111a.356.356,0,0,1-.025-.144v-.423a.917.917,0,0,0-.031-.257l.056-.112a1.31,1.31,0,0,1-.025-.283,14.6,14.6,0,0,0-1.017-3.678l-.539-.763c-.171-.284-.312-.482-.312-.482l-.227-.2-.509-.507-.339-.228-.4-.31a3.814,3.814,0,0,0-.794-.453c-.225-.087-.364-.141-.423-.171a1.806,1.806,0,0,0-.309-.142l-.309-.056-.651-.2a.633.633,0,0,0-.258-.029c-.17.083-.255.169-.282.254l-.03.142-.282.311L146.18,8.652l-.17.4-.171.282-.339.764-.17.314-.169.339-.2.34-.2.508c.059-.086-.083.056-.311.652l-.229.65-.31.564-.423.965a4.542,4.542,0,0,0-.255.565l-.055.227-.339.79-.823,2.01a1.785,1.785,0,0,0-.284.651c-.083.369-.706,1.84-.792,2.065a.955.955,0,0,1-.254.537Z" transform="translate(-94.998 -4.098)" fill="#003a7f"/>
        <path id="Path_5298" data-name="Path 5298" d="M159.507,23.579a.311.311,0,0,1-.026-.114l.053-.368-.027-.141.087-.368.056-.255.113-.312.028-.312a1.241,1.241,0,0,1,.055-.17l.116-.451a2.725,2.725,0,0,0,.141-.427c.171-.591.279-.989.279-.989.173-.4.37-.962.511-1.272l.056-.256.113-.255.113-.282a.062.062,0,0,1,.058-.057.832.832,0,0,1,.224-.51c.06-.141.118-.253.146-.309l.056-.23a2.208,2.208,0,0,1,.309-.592,2.027,2.027,0,0,0,.2-.311c.061-.115.4-.878.428-.905l.589-.962.141-.34.2-.17.057-.142c.056-.086.141-.169.2-.169h.03a.543.543,0,0,0,.146.027l.25-.027.141.2.226.284a.5.5,0,0,1,.114.255l-.082.058a1,1,0,0,1-.116.423l-.173.309-.051.172-.06.085c-.113.2-.96,1.128-1.13,1.47l-.141.4-.453.907-.4.905c-.083.114-.114.171-.114.228a.1.1,0,0,0,.031.084.989.989,0,0,0-.144.31l-.423,1.16-.058.256a.191.191,0,0,1-.086.082l.031.116-.056.027a2.781,2.781,0,0,1-.088.339l-.113.228-.086.425-.111.4-.056.34-.116.507-.027.339a1.854,1.854,0,0,1-.053.256c.053.227.139.341.312.341.136,0,.225-.057.65-.482l.62-.623a2.152,2.152,0,0,0,.423-.482.816.816,0,0,1,.26-.281c.476-.368.476-.537.594-.595l.224-.253.569-.6.194-.28.368-.509a.74.74,0,0,0,.088-.2l.2-.224.169-.312.312-.34a1.457,1.457,0,0,0,.108-.225c.171,0,.23.026.34.2l-.252.482-1.526,2.233c-.259.368-.456.622-.6.792l-.508.51-.368.453-.282.282c-.086.113-.226.284-.4.481a3.089,3.089,0,0,1-.534.539c-.143.113-.256.2-.287.226l-.055.142a1.657,1.657,0,0,1-.34.2c-.083.2-.083.2-.677.452-.566-.086-.821-.255-.821-.594v-.848c0-.057.028-.171.028-.313ZM165.39,8.948l.032-.056h.086a.209.209,0,0,1,.169-.141,1,1,0,0,0,.226.2l.255.087a1.042,1.042,0,0,1,.224.254,1.692,1.692,0,0,0,.23.225,5.626,5.626,0,0,1-.738,1.162,2.322,2.322,0,0,1-.393.651l-.257.168-.339.368h-.028c-.143,0-.252-.083-.453-.31,0-.03-.03-.03-.03-.057-.169-.168-.2-.225-.2-.311a1.062,1.062,0,0,1,.057-.311l.594-1.1.116-.255.225-.282a.913.913,0,0,0,.116-.284Z" transform="translate(-98.453 -4.88)" fill="#003a7f"/>
        <path id="Path_5299" data-name="Path 5299" d="M173.337,11.507l.456-.227.339-.057a.817.817,0,0,1,.225-.054c.229,0,.337.141.4.423.367.17.481.255.508.4l.083.2.34.482a.764.764,0,0,1,.057.252v.114l-.057.225-.053.369a.915.915,0,0,1-.257.482l-.282.337-.169.255-.568.566c-.111.254-.111.254-.313.284-.166.309-.224.423-.309.478l-.2.173a1.483,1.483,0,0,1-.451.282c0,.056,0,.083-.224.225l-.287.225a1.411,1.411,0,0,0-.226.171l-.34.309-.111.113-.511.284-.252.225-.428.173a.394.394,0,0,0-.169.2.34.34,0,0,0-.225.059l-.229.2-.2.028a.339.339,0,0,0-.083.141c-.2.115-.255.142-.4.226-.2.058-.255.087-.287.087h-.279a1.2,1.2,0,0,0-.255.057.4.4,0,0,1-.083-.2.213.213,0,0,1,.028-.114c.194-.114.337-.169.448-.227.485-.255.823-.425.853-.451l.874-.6.309-.17c.03-.029.259-.2.6-.482l.652-.507.393-.427a6.194,6.194,0,0,0,.513-.509l.453-.507a2.825,2.825,0,0,0,.42-.595l.343-.594.055-.227c.058-.141.086-.226.086-.226l-.055-.282s0-.03.055-.086a.663.663,0,0,0-.564-.284,2.137,2.137,0,0,0-1.279.481,7.465,7.465,0,0,0-1.042.851l-.4.451-1.019,1.133-.252.4a.853.853,0,0,1-.171.2.308.308,0,0,1-.03.118l-.113.169a5.484,5.484,0,0,0-.393.65,3.111,3.111,0,0,0-.256.453,2.207,2.207,0,0,0-.226.423c-.058.173-.114.283-.141.283l-.2.228-.058.226-.166.282-.055.2-.174.4c-.055.169-.083.2-.166.252,0,.029.023.058.023.087a1.59,1.59,0,0,1-.141.339l-.166.482-.229.735c-.111.255-.136.255-.136.423a1.251,1.251,0,0,1-.06.2,1.421,1.421,0,0,0-.086.314c-.055.223-.055.339-.139.68a.917.917,0,0,0-.03.365s-.027.285-.055.624v.083a.381.381,0,0,0,.055.229l.169.139.146.143h.165a2.806,2.806,0,0,0,1.726-.764l.4-.282.9-.708.458-.37a2.621,2.621,0,0,0,.4-.337c.254-.312.339-.255,1.218-1.189l.169-.141c.053-.059.111-.141.2-.256l.2-.2a.336.336,0,0,1,.057-.113l.255-.225.113-.171a.612.612,0,0,1,.229-.255c.026.058.026.058.111.058a1.549,1.549,0,0,1-.368.537c-.423.509-.71.848-.71.848l-.111.2-.478.512-.116.166-.735.71-.707.735-.934.821c-.056.03-.113.113-.229.2a2.818,2.818,0,0,1-.4.284,3.715,3.715,0,0,0-.364.255l-.2.171-.4.257a.288.288,0,0,0-.083.137.1.1,0,0,1-.058-.029c-.03,0-.053.029-.086.087a1.527,1.527,0,0,0-.309.084l-.226.086a1.149,1.149,0,0,1-.423.086c-.8,0-1.244-.652-1.244-1.783,0-.284.025-.541.025-.624l.2-.822.113-.651.506-1.555c.032-.14.032-.225.061-.225l.226-.509.848-1.841A19.329,19.329,0,0,1,169.1,15.38c.057-.054.337-.423.763-.932.254-.282.4-.481.425-.508l.821-.821.508-.481c.139-.113.312-.227.483-.339a5.746,5.746,0,0,1,.765-.481c.136-.085.136-.085.194-.228A.625.625,0,0,0,173.337,11.507Z" transform="translate(-99.494 -5.287)" fill="#003a7f"/>
        <path id="Path_5300" data-name="Path 5300" d="M170.28,31.67l.113-.255a2.226,2.226,0,0,1,.423-.6l.594-.733c.111-.057.2-.114.483-.453l.677-.71.284-.168.765-.651a.765.765,0,0,1,.282-.17,5.382,5.382,0,0,1,1.1-.906,13.219,13.219,0,0,1,1.41-1.046c.031-.057.061-.114.088-.114l.2-.141.143-.171.453-.279L179.9,23.35c.252-.2.279-.283.564-1.1.086-.282-.03.056.481-1.33a1.986,1.986,0,0,0,.113-.424l.083-.056-.027-.113a1.816,1.816,0,0,0,.2-.482c-.032.113.194-.624.252-.735a1.1,1.1,0,0,0,.083-.255c.032-.058.06-.169.116-.313l.055-.027c-.027-.083-.027-.113-.083-.142l-1.414,1.67-.34.311-.143.227-.282.255-.2.226-.907.735-.68.652-.171.111-1.1.851a1.825,1.825,0,0,1-.594.226l-.056.113-.141.029a1.416,1.416,0,0,1-.169.054h-.116l-.257-.027a.769.769,0,0,1-.166-.113c-.086-.056-.229-.143-.4-.255a1.025,1.025,0,0,1-.2-.567v-.14l.116-.312v-.255a1,1,0,0,1,.086-.284c.056-.2.116-.4.169-.621a7.489,7.489,0,0,1,.284-.991l1.045-2.208.768-1.358,1.3-1.9a1.288,1.288,0,0,1,.2-.2c.051-.057.225-.256.478-.566a2.113,2.113,0,0,1,.453-.511l.312-.252.426-.425.478-.314.881-.678a3.573,3.573,0,0,1,1.015-.537l.538-.143.4-.111.4-.057.309-.083h.169a.8.8,0,0,1,.255.027l.2.085.111.028.2.111.088.087.282.482.083.168a.323.323,0,0,1,.027.144v.393l.028.226-.139.481-.057.456c-.026.083-.084.169-.141.309l.338.481a1.3,1.3,0,0,0-.111.369.517.517,0,0,0,.028.17l-.284.2a.628.628,0,0,0-.225.37c-.2.168-.4.225-.566.508a1.742,1.742,0,0,1-.231.284l-.026.053a2.207,2.207,0,0,0-.335.682,3.543,3.543,0,0,0-.339.621l-.4,1.16-.821,2.035-.086.284-.166.453a1.59,1.59,0,0,0-.06.311l.226-.169c.113-.084.169-.115.2-.142.282-.2.537-.368.819-.566.4-.282.455-.339.511-.368l.257-.253.647-.482.933-.763a4.814,4.814,0,0,0,.622-.481.208.208,0,0,1,.173-.116.124.124,0,0,1,.114.116,1.053,1.053,0,0,1-.426.65c-.057.057-.173.168-.284.284-.848.763-.649.592-.763.65.03,0-1.017.763-1.075.821l-.682.566-.451.365a2.574,2.574,0,0,1-.4.369c-.2.139-.03.169-.566.48a2.217,2.217,0,0,0-.793,1.275l-.765,2.091-.309.68-.088.2a.932.932,0,0,1-.166.251,1.369,1.369,0,0,1-.086.341l-.226.369-.2.565c-.169.2-.141.2-.169.282-.086.085-.4.651-.339.512l-.114.312a3.572,3.572,0,0,1-.45.591.6.6,0,0,1-.37.511,3.329,3.329,0,0,1-.591.877l-.71.764a2,2,0,0,1-.624.453,4.051,4.051,0,0,0-.506.279l-.313.2s-.224.086-.536.2l-.909.31c0,.028-.03.028-.03.028h-.42l-.542.086-.309-.086h-.2a2.589,2.589,0,0,1-1.531-1.133c-.083-.141-.111-.2-.222-.224-.032-.086-.032-.169-.057-.227s-.06-.083-.06-.116l.06-.253a.086.086,0,0,0-.032-.057C170.192,31.839,170.25,31.726,170.28,31.67Zm8.571-5.063.171-.456.143-.311c.053-.284.053-.255.139-.339a1.678,1.678,0,0,1,.2-.678c.027-.086.056-.171.113-.313l-.143-.055a1.038,1.038,0,0,0-.225.138l-.367.284-.368.228-.229.225a1.08,1.08,0,0,1-.368.17v.083a1.838,1.838,0,0,0-.255.172l-.765.592-.252.142-.4.369-.624.507-.252.311-.569.426-.166.2-.4.283-.285.311-.2.142-.34.424-.222.2-.312.368-.226.2-.231.339-.222.313-.309.538a1.2,1.2,0,0,0-.257.509l-.116.453a.116.116,0,0,0-.025.086.41.41,0,0,0,.171.365l.227.116.083.141a.842.842,0,0,0,.4.057l.284.027.339-.085.338-.058.481-.253.2-.087.451-.252.508-.284a4.831,4.831,0,0,1,.4-.4l.79-.736a8.015,8.015,0,0,0,.68-.877,4.981,4.981,0,0,0,.592-.819l.483-.877.342-.624a1.031,1.031,0,0,1,.141-.312c.255-.368.283-.393.2-.537A2.075,2.075,0,0,0,178.851,26.607Zm-2.829-3.991a2.374,2.374,0,0,0,.79-.453L178,21.314l.765-.68.737-.624c.423-.393,1.3-1.3,1.78-1.867l.878-1.018.339-.4a1.767,1.767,0,0,0,.229-.4.642.642,0,0,1,.225-.254c-.027-.028-.027-.056.113-.339l.113-.284.144-.256.337-.564.23-.227.194-.229.677-.508s.03-.111.06-.28l.086-.569c0-.027-.03-.082-.06-.195a.422.422,0,0,0-.338-.314l-.368-.056L184,12.174a.1.1,0,0,0-.083-.027h-.06l-.2.057h-.2a1.166,1.166,0,0,0-.28.057l-.764.311a4.148,4.148,0,0,0-.678.339l-.483.369-.141.056-.37.312-.393.282-.171.2c-.055.028-.138.112-.279.2-.03.085-.06.141-.259.339a13.264,13.264,0,0,0-1.357,1.784l-.481.735c-.028.026.113-.057-.564.876l-.227.539-.116.226-.9,2.122-.056.368-.226.735a3.228,3.228,0,0,0-.058.453A1.352,1.352,0,0,0,176.022,22.616Z" transform="translate(-100.254 -5.247)" fill="#003a7f"/>
        <path id="Path_5301" data-name="Path 5301" d="M190.57,14.709l.141-.256.2-.169c.06-.057.2-.4.369-.594l.2-.226.109-.141.06-.029c.028,0,.114-.085.2-.195l.365-.23.71-.481.568-.283c.2-.113.34-.2.393-.228l.959-.309,1.193-.68a.478.478,0,0,1,.2-.029c.226,0,.338.115.478.424.058.03.091.057.118.057s.053-.027.109-.084l.113.112h.087a1.558,1.558,0,0,1,.622.256,2.892,2.892,0,0,1,.816.706l.2.369.057.111a1.454,1.454,0,0,1,.081.368l.086.541.057.252c0,.03.028.057.056.088l.03-.088a.756.756,0,0,0,.169.088,1.109,1.109,0,0,0,.37-.115l.451-.285,1.075-.535a6.188,6.188,0,0,0,.566-.367l.254-.2.056.058a3.355,3.355,0,0,1-.932,1.017L199.2,14.906l-.224.143-.116.537-.225.735v.171a1.944,1.944,0,0,1-.2.539l-.113.225-1.445,2.773-.989,1.5a4.116,4.116,0,0,1-.595.765l-.369.482a12.456,12.456,0,0,1-1.952,2.037l-.538.423a2.255,2.255,0,0,1-1.047.566l-.481.143c-.03.027-.083.027-.169.027H190.6l-.03.057-.252-.141v.084a3.694,3.694,0,0,1-.992-.481l-.309-.255-.116-.056a1.586,1.586,0,0,1-.282-.566c-.141-.453-.141-.453-.141-.566a9.83,9.83,0,0,1,.141-1.272l.2-1.048a8.4,8.4,0,0,1,.538-1.669l.763-1.785.227-.564.312-.565c.141-.257.252-.454.252-.454l.28-.394v-.03a.276.276,0,0,0-.021-.141l-.656-.4a.6.6,0,0,1-.195-.4.92.92,0,0,1,.144-.393C190.513,14.792,190.57,14.737,190.57,14.709Zm.285,10.13a2.337,2.337,0,0,0,.733-.226,8.267,8.267,0,0,0,.881-.426l.282-.254.169-.057s.254-.225.591-.537l.513-.482.537-.679a2.531,2.531,0,0,0,.425-.594l.423-.71.229-.225.309-.677.735-1.417a4.836,4.836,0,0,0,.2-.479l.256-.852.252-.678.03-.451a.3.3,0,0,0,.031-.142c0-.087-.061-.115-.144-.115h-.141a1.823,1.823,0,0,0-.4.086l-1.558.423a12.5,12.5,0,0,1-2.148.256c-.027,0-.058.03-.113,0a3.559,3.559,0,0,0-.428-.028c-.141,0-.2.113-.4.537a3.022,3.022,0,0,1-.227.425,24.215,24.215,0,0,0-1.47,3.282,10.238,10.238,0,0,0-.708,3.366C189.722,24.726,189.92,24.839,190.855,24.839Zm1.471-11.262a.929.929,0,0,1-.225.112l-.171.312-.254.282c-.028.028-.028.113-.028.2,0,.255.141.423.34.423a.2.2,0,0,0,.139-.058l.71-.932.566-.678a3.541,3.541,0,0,0,.2-.341A3.362,3.362,0,0,0,192.325,13.577Zm1.215,1.839.68.027h.34c.06,0,.256-.027.6-.084l.9-.172.681-.2c.794-.143.934-.254.934-.764,0-1.16-.564-1.839-1.583-1.839-.426,0-.595.114-1.251.905l-.929,1.1a2.133,2.133,0,0,0-.255.34c-.146.227-.226.368-.254.4-.114.113-.144.142-.144.255A1.591,1.591,0,0,0,193.541,15.417Z" transform="translate(-103.343 -5.235)" fill="#003a7f"/>
        <g id="Group_7635" data-name="Group 7635" transform="translate(0 1.75)">
          <path id="Path_5302" data-name="Path 5302" d="M87.664,22.441c-.2.087-.2.087-.312.341l-.114.337a.222.222,0,0,0-.028.144,1.515,1.515,0,0,0,.652,1.244l.17.086c.026,0,.056.057.111.112h.171l.111.143.087-.03c.111.113.2.171.254.171a8.13,8.13,0,0,1,1.329.2h1.019l.425-.057.65-.056a2.033,2.033,0,0,1,.312-.084.914.914,0,0,0,.368-.086l.537-.086.313-.113.735-.282.424-.227.509-.226c.651-.424,1.526-1.33,1.556-1.669l.058-.34a.938.938,0,0,1,.083-.28L97,21.593a.172.172,0,0,0,.055-.112l-.142-.594-.027-.284a.993.993,0,0,0-.227-.537l-.284-.367-.423-.625-.341-.423-.479-.623-.793-.819-.737-.878-.227-.171a18.794,18.794,0,0,1-1.922-2.291,6.436,6.436,0,0,1-.425-.736,4.805,4.805,0,0,1-.709-2.235A3.507,3.507,0,0,1,91.737,8.21a11.123,11.123,0,0,1,2.32-1.244l.453-.113.763-.227.794-.141L97,6.343l.735-.087.651-.054h.028l.508.026.85-.026a5.281,5.281,0,0,1,.906.141c.368.084.566.141.764.2a3.143,3.143,0,0,0,.906.339,1.043,1.043,0,0,0,.2-.057c.339.423.453.651.453.905a2.529,2.529,0,0,1-.423,1.216,17.3,17.3,0,0,1-.993,1.472,2.081,2.081,0,0,0-.31.339l-.114.257s-.083.057-.225.14a.87.87,0,0,1-.4.114c-.142,0-.227-.057-.369-.254a1.342,1.342,0,0,1,.114-.339l.453-.71a3.673,3.673,0,0,0,.453-1.528.657.657,0,0,0-.508-.651l-.311-.14-.339-.028-.369-.086-.31.028L98.1,7.5l-2.688.339c-.027,0-.394.141-.989.34L94,8.295c-1.161.4-2.1,1.246-2.123,1.923l-.027.368-.029.368.057.14.027.285s.058.2.143.453l.226.68.4.566.169.339c.311.479,3,3.621,3.2,3.762a1.643,1.643,0,0,1,.48.568,2.709,2.709,0,0,0,.4.564l.2.17a4.779,4.779,0,0,1,.309.481l.313.538c.028.057.142.339.284.735a3.378,3.378,0,0,1,.169.427.869.869,0,0,1,.086.282l-.027.424v.481a.934.934,0,0,1-.087.425l-.227.453-.055.2-.171.2-.338.54a4.444,4.444,0,0,1-1.416,1.076l-1.076.564c-.453.229-.764.37-.848.4l-.368.083c-.424.116-.68.171-.708.171h-.339l-.426.111-.65.031-.311.054H89.474l-1.218-.282c-.085-.027-.169-.027-.311-.058-.029-.111-.056-.138-.255-.167a2.209,2.209,0,0,1-1.556-1.783c0-.905.481-1.417,1.472-1.556Z" transform="translate(-86.134 -6.202)" fill="#003a7f"/>
          <path id="Path_5303" data-name="Path 5303" d="M114.335,12.4a.632.632,0,0,1,.34-.282c.65.282.792.453.792.876a.712.712,0,0,1-.142.509l-.538.538-.281.34-.368.452-.34.481a.844.844,0,0,0-.2.425.642.642,0,0,1-.284.284l-.225.451-.283.339-.536,1.077a1.689,1.689,0,0,0-.171.34,2.552,2.552,0,0,1-.227.479l-.168.256-.227.624-.537,1.215-.284.735c-.083.083-.141.169-.168.509l-.141.309-.029.23-.254.847-.115.508a5.671,5.671,0,0,0-.111.709c0,.085.111.168.253.168.087,0,.113-.026.4-.225l.651-.452a17.049,17.049,0,0,0,1.613-1.7l1.838-2.18.311-.453c0-.027.056-.055.113-.085v.085l.057.057a1.407,1.407,0,0,1-.225.566c-.058.115-.17.254-.284.427l-.056.027c-.142.252-.226.394-.255.45l-.537.653-.31.453-.623.7-1.106,1.416a3.517,3.517,0,0,1-1.472,1.219c-.113.054-.2.084-.255.112a.621.621,0,0,1-.282.055h-.055l-.284-.083-.2-.057-.283-.284a.781.781,0,0,1-.142-.251l.028-.173-.057-.2a.488.488,0,0,1-.057-.142,3.465,3.465,0,0,1,.114-.595l.255-1.216.738-2.123v-.027a.132.132,0,0,0-.113-.143.106.106,0,0,0-.059.028l-.113.173-.31.252-.2.225-.369.369-.142.284c-1.017,1.1-1.242,1.472-1.328,1.555l-.056.087-.369.368h-.085c-.141.142-.227.255-.284.309a1.313,1.313,0,0,0-.17.228l-.4.281a2.421,2.421,0,0,1-.2.226,2.3,2.3,0,0,1-.281.284,1.439,1.439,0,0,1-.255.2l-.112.142a5.739,5.739,0,0,0-.736.424.346.346,0,0,1-.2.112l-.141.03-.169.2h-.229a1.576,1.576,0,0,0-.309.027,3.7,3.7,0,0,1-.31-.284c-.482-.394-.567-.509-.567-.848a8.6,8.6,0,0,1,.4-2.036l.285-.737.424-1.076.312-.62.225-.513.2-.368.763-1.47a17.048,17.048,0,0,1,1.356-1.953l1.049-1.358.311-.424.284-.283.45-.483c.087-.081.369-.368.822-.76a2.427,2.427,0,0,1,.368-.341l.369-.226.34-.314.677-.309a2.488,2.488,0,0,1,.51-.255l.425-.056.2-.087h.256l.226-.056.621.028h.17l.2.114.284.111.17.14c.028.03.054.03.114.059C114.108,12.261,114.166,12.344,114.335,12.4ZM103.978,24.938l.086.111a1.612,1.612,0,0,0,.536-.281l1.018-.849.225-.141.426-.427,1.046-.961.566-.621a3.145,3.145,0,0,0,.225-.284c.114-.083.2-.142.2-.169l.227-.312.227-.282.792-1.021c.03-.027.114-.11.227-.225,0-.026-.03-.026-.03-.026a1.3,1.3,0,0,0,.172-.229l.255-.369.169-.17.084-.169.849-1.216a5.609,5.609,0,0,0,.537-.936l.169-.338.171-.2.367-.563.68-1.106.227-.252.255-.427a.916.916,0,0,1,.169-.224,1.852,1.852,0,0,1-.255-.171l-.312-.254a1.062,1.062,0,0,0-.2-.086c-.253-.057-.283-.057-.309-.141l-.34-.055h-.2l-.228.083-.537.168-.2.141-.225.086-.256.2-.481.309-.284.282-.594.566a2.85,2.85,0,0,1-.339.339l-.368.481-.593.679-.03.115-.537.621-.057.2-.367.454a5.717,5.717,0,0,1-.284.6c-.083.225-.167.309-.339.339a2.205,2.205,0,0,1-.4.878l-.65,1.132c0,.028-.057.139-.112.28a.259.259,0,0,0-.114.314,4.712,4.712,0,0,0-.511.933l-.226.651-.2.453-.112.4-.226.651-.055.423c-.059.228-.116.4-.116.426v.028l.085.171Z" transform="translate(-88.839 -7.111)" fill="#003a7f"/>
          <path id="Path_5304" data-name="Path 5304" d="M116.267,26.059l.114-.226.281-.677a5.083,5.083,0,0,0,.764-1.614l.509-1.047a1.1,1.1,0,0,0,.085-.312l.114-.027c.055-.17.083-.314.111-.4a4.646,4.646,0,0,1,.453-1.019,1.3,1.3,0,0,0,.283-.708c.112-.224.141-.339.171-.4l.17-.225.112-.4.112-.116.144-.394.424-.963.225-.622a.774.774,0,0,0,.142-.341c0-.028-.029-.055-.084-.111l.055-.171-.227-.112a2.559,2.559,0,0,1,.172-.626l.536-1.158.114-.227.508-.732c.255-.4.284-.428.624-.428a.671.671,0,0,1,.254.086l.34.37c.027.025.114.083.225.169a.769.769,0,0,0-.083.224.9.9,0,0,0,.054.229,1.473,1.473,0,0,0-.223.255l-.115.311-.141.142-1.245,2.8-.424.822-.764,1.839c-.086.112-.142.171-.142.226a.548.548,0,0,0,.084.255l2.293-2.659.425-.424a1.431,1.431,0,0,0,.029-.142c.169-.086.169-.086.282-.284,0,0,.142-.17.369-.423.028,0,.113-.116.253-.314a21.09,21.09,0,0,1,1.7-1.7,15.778,15.778,0,0,1,1.615-1.388,3.522,3.522,0,0,1,.907-.509c.393.226.735.621.735.791a.865.865,0,0,1-.085.257l-.116.339-.224.311-.2.481a11.306,11.306,0,0,0-.594,1.188l-.512.907-.082.225c0,.029-.03.029-.086.058a.787.787,0,0,1-.085.311l-.31.508-.4.907-.255.423-.227.51-.168.312-.169.537-.229.566a2.018,2.018,0,0,1-.141.424l-.142.113-.169.679-.254.765-.114.566-.114.284c-.028.027-.028.054-.028.113a.162.162,0,0,0,.171.167c.141,0,.253-.083.705-.481l.738-.675,1.868-1.9c.057-.082.935-1.156.963-1.242.339-.511.423-.651.508-.651a.283.283,0,0,0,.084.027.752.752,0,0,1-.282.71l.029.056-.257.141c0,.143-.029.226-.593.877l-.17.284-.226.2a.674.674,0,0,0-.113.339,2.436,2.436,0,0,1-.228.253l-1.073,1.332-.313.312-.171.282-.253.2a2.017,2.017,0,0,0-.426.537,7.369,7.369,0,0,1-.735.737c-.169.171-.339.339-.508.508-.057.028-.112.114-.225.2-.709-.312-.823-.426-.823-.82a8.8,8.8,0,0,1,.4-1.981l.059-.284c.142-.48.255-.82.309-1.02l.878-2.29,1.245-2.718c.141-.253.339-.649.62-1.158a4.809,4.809,0,0,0,.453-1.019c-.082-.112-.166-.171-.224-.171-.087,0-.2.087-.68.482l-.314.255-.478.51-.737.763-.423.511a5.187,5.187,0,0,0-.508.537c-.114.255-.936,1.047-.992,1.217a2.458,2.458,0,0,0-.595.735,8.5,8.5,0,0,1-.735.936c-.255.312-.452.564-.624.792l-2.715,4.273-.057.169-.225.226a.355.355,0,0,1-.283.2c-.339,0-.51-.169-.481-.481l-.226-.113C116.239,26.117,116.239,26.059,116.267,26.059Z" transform="translate(-91.196 -7.329)" fill="#003a7f"/>
        </g>
      </g>
      <g id="Group_7637" data-name="Group 7637" transform="translate(55.516 54.039)">
        <path id="Path_5305" data-name="Path 5305" d="M77.515,71.3c.009-.609-.046-1.209-.745-1.209-.428,0-.7.172-.7.636,0,.517.327.718.727.972a11.692,11.692,0,0,1,1.545,1.117,1.782,1.782,0,0,1,.572,1.427,1.872,1.872,0,0,1-2.1,1.963,1.836,1.836,0,0,1-2.071-2.072v-.5h1.272v.4c-.027.663.173,1.145.8,1.145a.705.705,0,0,0,.791-.8,1.032,1.032,0,0,0-.509-.9,9.981,9.981,0,0,1-2.008-1.572,1.888,1.888,0,0,1-.328-1.046c0-1.163.655-1.8,2-1.8,2.026,0,1.972,1.564,1.981,2.236Z" transform="translate(-74.743 -69.061)" fill="#fff"/>
        <path id="Path_5306" data-name="Path 5306" d="M81.471,76.074,83.1,69.258h1.718l1.546,6.816H85l-.336-1.727H83.17l-.337,1.727Zm1.9-2.727h1.091l-.345-1.936c-.063-.318-.091-.626-.127-.945-.009-.155-.027-.309-.046-.454h-.017c-.018.146-.037.3-.046.454-.037.319-.064.627-.127.945Z" transform="translate(-75.874 -69.094)" fill="#fff"/>
        <path id="Path_5307" data-name="Path 5307" d="M91.68,69.258h1.363l-1.472,6.816h-1.7l-1.509-6.816h1.363l.8,4.371c.073.382.118.773.155,1.164a5.592,5.592,0,0,1,.055.563h.017a5.589,5.589,0,0,1,.055-.563c.037-.391.082-.782.155-1.164Z" transform="translate(-77.033 -69.094)" fill="#fff"/>
        <path id="Path_5308" data-name="Path 5308" d="M96.053,76.074V69.258h1.272v6.816Z" transform="translate(-78.326 -69.094)" fill="#fff"/>
        <path id="Path_5309" data-name="Path 5309" d="M103.215,69.258h1.272v6.816H103.16l-.991-2.427a22.881,22.881,0,0,1-.908-2.708h-.018c.045.564.1,1.254.136,1.945s.063,1.363.063,1.909v1.281H100.17V69.258h1.318l.991,2.481a22.847,22.847,0,0,1,.908,2.708h.018c-.046-.618-.091-1.281-.127-1.936s-.063-1.309-.063-1.917Z" transform="translate(-79.019 -69.094)" fill="#fff"/>
        <path id="Path_5310" data-name="Path 5310" d="M107.794,72.087c.055-1.735.191-3.026,2.227-3.026,1.091.009,1.845.291,2.135,1.472a4.2,4.2,0,0,1,.064.827h-1.273c-.018-.69-.063-1.235-.927-1.272-1,0-.918,1.19-.918,1.718V73.7c0,.564.046,1.482.918,1.482.727,0,.963-.772.936-1.8h-.882v-1h2.118v3.663h-.954V75.26h-.018a1.291,1.291,0,0,1-1.2.945c-2.09,0-2.227-1.327-2.227-3.144Z" transform="translate(-80.301 -69.061)" fill="#fff"/>
        <path id="Path_5311" data-name="Path 5311" d="M119.525,76.074V69.258H120.8v5.816h2.363v1Z" transform="translate(-82.273 -69.094)" fill="#fff"/>
        <path id="Path_5312" data-name="Path 5312" d="M126.089,76.074V69.258h1.273v6.816Z" transform="translate(-83.377 -69.094)" fill="#fff"/>
        <path id="Path_5313" data-name="Path 5313" d="M133.011,69.258h1.363L132.9,76.074h-1.7l-1.508-6.816h1.363l.8,4.371c.072.382.118.773.155,1.164.017.181.054.373.054.563h.018a5.587,5.587,0,0,1,.055-.563c.036-.391.082-.782.154-1.164Z" transform="translate(-83.983 -69.094)" fill="#fff"/>
        <path id="Path_5314" data-name="Path 5314" d="M137.329,76.074V69.258h3.581v1H138.6v1.718h2.127v1H138.6v2.1h2.309v1Z" transform="translate(-85.267 -69.094)" fill="#fff"/>
        <path id="Path_5315" data-name="Path 5315" d="M146.491,71.3c.008-.609-.046-1.209-.745-1.209-.428,0-.7.172-.7.636,0,.517.327.718.727.972a11.692,11.692,0,0,1,1.545,1.117,1.782,1.782,0,0,1,.572,1.427,1.872,1.872,0,0,1-2.1,1.963,1.836,1.836,0,0,1-2.072-2.072v-.5h1.273v.4c-.027.663.173,1.145.8,1.145a.705.705,0,0,0,.791-.8,1.033,1.033,0,0,0-.509-.9,9.981,9.981,0,0,1-2.008-1.572,1.888,1.888,0,0,1-.328-1.046c0-1.163.655-1.8,2-1.8,2.026,0,1.972,1.564,1.981,2.236Z" transform="translate(-86.341 -69.061)" fill="#fff"/>
        <path id="Path_5316" data-name="Path 5316" d="M157.479,71.3c.009-.609-.046-1.209-.745-1.209-.428,0-.7.172-.7.636,0,.517.327.718.726.972a11.648,11.648,0,0,1,1.546,1.117,1.779,1.779,0,0,1,.572,1.427,1.872,1.872,0,0,1-2.1,1.963,1.836,1.836,0,0,1-2.072-2.072v-.5h1.272v.4c-.027.663.172,1.145.8,1.145a.705.705,0,0,0,.79-.8,1.032,1.032,0,0,0-.509-.9,10.009,10.009,0,0,1-2.009-1.572,1.893,1.893,0,0,1-.327-1.046c0-1.163.655-1.8,2-1.8,2.026,0,1.972,1.564,1.981,2.236Z" transform="translate(-88.189 -69.061)" fill="#fff"/>
        <path id="Path_5317" data-name="Path 5317" d="M162.09,76.074V69.258h1.273v6.816Z" transform="translate(-89.431 -69.094)" fill="#fff"/>
        <path id="Path_5318" data-name="Path 5318" d="M169.252,69.258h1.273v6.816H169.2l-.991-2.427a23.025,23.025,0,0,1-.909-2.708h-.018c.046.564.1,1.254.137,1.945s.063,1.363.063,1.909v1.281h-1.273V69.258h1.318l.991,2.481a22.992,22.992,0,0,1,.908,2.708h.018c-.046-.618-.092-1.281-.127-1.936s-.064-1.309-.064-1.917Z" transform="translate(-90.123 -69.094)" fill="#fff"/>
        <path id="Path_5319" data-name="Path 5319" d="M177.984,73.615c-.008.127-.018.264-.027.391-.064,1.245-.482,2.2-1.9,2.2-2.09,0-2.227-1.327-2.227-3.144v-.973c.055-1.735.191-3.026,2.227-3.026a1.706,1.706,0,0,1,1.863,1.764,3.273,3.273,0,0,1,.027.518h-1.254c-.055-.437-.009-1.254-.636-1.254-1,0-.918,1.19-.918,1.718V73.7c0,.564.045,1.482.918,1.482.7,0,.618-1.127.646-1.563Z" transform="translate(-91.405 -69.061)" fill="#fff"/>
        <path id="Path_5320" data-name="Path 5320" d="M181.1,76.074V69.258h3.581v1h-2.309v1.718h2.127v1h-2.127v2.1h2.309v1Z" transform="translate(-92.626 -69.094)" fill="#fff"/>
        <path id="Path_5321" data-name="Path 5321" d="M192.788,71.348h-1.536v-.909c.883-.009,1.618-.245,1.873-1.181h.936v6.816h-1.272Z" transform="translate(-94.334 -69.094)" fill="#fff"/>
        <path id="Path_5322" data-name="Path 5322" d="M201.574,73.452c0,2.172-.618,2.753-1.963,2.753-1,0-1.718-.454-1.681-1.536h1.181c.009.228.037.564.555.537.718,0,.646-.863.664-1.272V73.5a1.165,1.165,0,0,1-1,.454c-1.082,0-1.546-.736-1.546-2.135,0-1.709.418-2.59,1.891-2.59,1.517,0,1.917.991,1.9,2.59Zm-1.927-3.227c-.664.009-.591.627-.591,1.5,0,.491-.064,1.227.618,1.227.627,0,.627-.664.627-1.227C200.311,70.88,200.329,70.161,199.647,70.225Z" transform="translate(-95.433 -69.089)" fill="#fff"/>
        <path id="Path_5323" data-name="Path 5323" d="M204.346,72.961l.173-3.572H207.8v1h-2.3l-.082,1.454a1.223,1.223,0,0,1,.99-.382c1.491,0,1.7,1.273,1.7,2.354,0,1.545-.445,2.417-1.881,2.417-1.545,0-1.954-.709-1.945-2.281h1.19c.018.491-.054,1.244.636,1.281.754.046.709-.754.727-1.427.046-1.091-.264-1.345-.727-1.345a.616.616,0,0,0-.636.5Z" transform="translate(-96.525 -69.116)" fill="#fff"/>
        <path id="Path_5324" data-name="Path 5324" d="M210.9,72.961l.172-3.572h3.281v1h-2.3l-.082,1.454a1.224,1.224,0,0,1,.991-.382c1.49,0,1.7,1.273,1.7,2.354,0,1.545-.445,2.417-1.881,2.417-1.546,0-1.955-.709-1.946-2.281h1.19c.018.491-.054,1.244.636,1.281.755.046.71-.754.727-1.427.046-1.091-.264-1.345-.727-1.345a.617.617,0,0,0-.636.5Z" transform="translate(-97.627 -69.116)" fill="#fff"/>
      </g>
    </g>
  </g>
</svg>
